{
  "accessors": [
    {
      "bufferView": 2,
      "componentType": 5126,
      "count": 20104,
      "max": [
        1.0000001192092896,
        1.0000001192092896,
        0.9995056390762329
      ],
      "min": [
        -0.999822199344635,
        -1.0000001192092896,
        -0.9995056390762329
      ],
      "type": "VEC3"
    },
    {
      "bufferView": 2,
      "byteOffset": 241248,
      "componentType": 5126,
      "count": 20104,
      "max": [
        1.0,
        1.0,
        1.0
      ],
      "min": [
        -1.0,
        -1.0,
        -1.0
      ],
      "type": "VEC3"
    },
    {
      "bufferView": 1,
      "componentType": 5126,
      "count": 20104,
      "max": [
        0.8750001192092896,
        1.0000001192092896
      ],
      "min": [
        0.0,
        0.0
      ],
      "type": "VEC2"
    },
    {
      "bufferView": 0,
      "componentType": 5125,
      "count": 114048,
      "type": "SCALAR"
    },
    {
      "bufferView": 2,
      "byteOffset": 482496,
      "componentType": 5126,
      "count": 7077,
      "max": [
        0.9800001978874207,
        0.9800001978874207,
        0.9800001978874207
      ],
      "min": [
        -0.9800001978874207,
        -0.9800001978874207,
        -0.9800001978874207
      ],
      "type": "VEC3"
    },
    {
      "bufferView": 2,
      "byteOffset": 567420,
      "componentType": 5126,
      "count": 7077,
      "max": [
        1.0,
        1.0,
        1.0
      ],
      "min": [
        -1.0,
        -1.0,
        -1.0
      ],
      "type": "VEC3"
    },
    {
      "bufferView": 1,
      "byteOffset": 160832,
      "componentType": 5126,
      "count": 7077,
      "max": [
        0.8229167461395264,
        0.9000001549720764
      ],
      "min": [
        0.177083358168602,
        0.05000000074505806
      ],
      "type": "VEC2"
    },
    {
      "bufferView": 0,
      "byteOffset": 456192,
      "componentType": 5125,
      "count": 40320,
      "type": "SCALAR"
    }
  ],
  "asset": {
    "extras": {
      "author": "OZU (https://sketchfab.com/ozukawa)",
      "license": "CC-BY-4.0 (http://creativecommons.org/licenses/by/4.0/)",
      "source": "https://sketchfab.com/3d-models/dice-c2fed9621cbe43f786c5c5667f731a64",
      "title": "Dice"
    },
    "generator": "Sketchfab-15.34.0",
    "version": "2.0"
  },
  "bufferViews": [
    {
      "buffer": 0,
      "byteLength": 617472,
      "name": "floatBufferViews",
      "target": 34963
    },
    {
      "buffer": 0,
      "byteLength": 217448,
      "byteOffset": 617472,
      "byteStride": 8,
      "name": "floatBufferViews",
      "target": 34962
    },
    {
      "buffer": 0,
      "byteLength": 652344,
      "byteOffset": 834920,
      "byteStride": 12,
      "name": "floatBufferViews",
      "target": 34962
    }
  ],
  "buffers": [
    {
      "byteLength": 1487264,
      "uri": "scene.bin"
    }
  ],
  "materials": [
    {
      "doubleSided": true,
      "name": "cube",
      "pbrMetallicRoughness": {
        "baseColorFactor": [
          0.0,
          0.0,
          0.0,
          1.0
        ],
        "metallicFactor": 0.0,
        "roughnessFactor": 0.16914337262742132
      }
    },
    {
      "doubleSided": true,
      "name": "numbers",
      "pbrMetallicRoughness": {
        "baseColorFactor": [
          0.8,
          0.8,
          0.8,
          1.0
        ],
        "metallicFactor": 0.0,
        "roughnessFactor": 0.1788854381999832
      }
    }
  ],
  "meshes": [
    {
      "name": "dice_cube_0",
      "primitives": [
        {
          "attributes": {
            "NORMAL": 1,
            "POSITION": 0,
            "TEXCOORD_0": 2
          },
          "indices": 3,
          "material": 0,
          "mode": 4
        }
      ]
    },
    {
      "name": "dice_numbers_0",
      "primitives": [
        {
          "attributes": {
            "NORMAL": 5,
            "POSITION": 4,
            "TEXCOORD_0": 6
          },
          "indices": 7,
          "material": 1,
          "mode": 4
        }
      ]
    }
  ],
  "nodes": [
    {
      "children": [
        1
      ],
      "matrix": [
        1.0,
        0.0,
        0.0,
        0.0,
        0.0,
        2.220446049250313e-16,
        -1.0,
        0.0,
        0.0,
        1.0,
        2.220446049250313e-16,
        0.0,
        0.0,
        0.0,
        0.0,
        1.0
      ],
      "name": "Sketchfab_model"
    },
    {
      "children": [
        2
      ],
      "matrix": [
        0.009999999776482582,
        0.0,
        0.0,
        0.0,
        0.0,
        0.0,
        0.009999999776482582,
        0.0,
        0.0,
        -0.009999999776482582,
        0.0,
        0.0,
        0.0,
        0.0,
        0.0,
        1.0
      ],
      "name": "dice.fbx"
    },
    {
      "children": [
        3
      ],
      "name": "RootNode"
    },
    {
      "children": [
        4,
        5
      ],
      "matrix": [
        -0.008257537464043946,
        -0.003904864581455887,
        -1.186831848934576,
        0.0,
        -1.186730004687672,
        -0.015994952382970152,
        0.00830945479370888,
        0.0,
        -0.016021822122558097,
        1.1867530290042403,
        -0.003793131333235046,
        0.0,
        0.23409882187843323,
        1.2765659093856812,
        0.0,
        1.0
      ],
      "name": "dice"
    },
    {
      "mesh": 0,
      "name": "dice_cube_0"
    },
    {
      "mesh": 1,
      "name": "dice_numbers_0"
    }
  ],
  "scene": 0,
  "scenes": [
    {
      "name": "Sketchfab_Scene",
      "nodes": [
        0
      ]
    }
  ]
}
